<?xml version="1.0" encoding="UTF-8"?>
<svg id="Layer_2" data-name="Layer 2" xmlns="http://www.w3.org/2000/svg" viewBox="0 0 179.71 183.48">
  <defs>
    <style>
      .cls-1 {
        fill: #fff;
      }
    </style>
  </defs>
  <g id="Layer_1-2" data-name="Layer 1">
    <g id="logo-sheet">
      <g id="logo3_white">
        <g id="disco-ball">
          <g id="ball">
            <path class="cls-1" d="M55.64,42.04c.73-.11.43-1.23.44-1.81,0-.07.29-.61.44-1.36.13-.56.3-1.25.44-1.81.01-.05.21-.14.44-.9.11-.39.31-.94.44-1.36s.3-.94.44-1.36c.16-.46.29-.95.44-1.36.02-.05.26-.44.44-.9.2-.52.3-1,.44-1.36.03-.08.27-.5.44-.9,4.05-9.15,12.3-23.67,21.78-27.55.33-.13.97-.34,1.33-.45s1.26-.44,1.33-.45c.42-.08,2.53-.46,2.67-.45.97.05,1.98-.34,2.67.68v41.56l-34.23-.23Z"/>
            <path class="cls-1" d="M64.98,4.1c.12.12-.31.54-.44.9-5.67,5.53-8.53,12.72-11.56,19.88-.13.28-.3.57-.44.9-.27.65-.31,1.03-.44,1.36-.04.09-.26.44-.44.9-.28.67-.31,1.04-.44,1.36-.27.65-.31,1.02-.44,1.36-.03.08-.25.42-.44.9-.18.49-.28.92-.44,1.36-.18.49-.29.91-.44,1.36s-.29.93-.44,1.36c-.31.87-.3,1.4-.44,1.81-.17.47-.29.94-.44,1.36-.19.51-.28.89-.44,1.36-.39.67-.63.87-.44,1.81l-32.45-.23C24.7,26.96,38.66,15.2,54.75,7.71c.4-.18.8-.42.89-.45.44-.18.84-.43.89-.45.4-.16.88-.28,1.33-.45.42-.16.88-.29,1.33-.45.64-.23.84-.44.89-.45.48-.14,1.16-.41,1.33-.45.57-.14,1.19-.42,1.33-.45.62-.15,1.26-.44,1.33-.45.29-.03.6.01.89,0Z"/>
            <path class="cls-1" d="M16.97,51.08c8.46.3,16.42.39,24.89,0,.88.05,1.79-.03,2.67,0l.44.45v.45c-.77.12-.37,1.22-.44,1.81-.04.38-.35,1.44-.44,2.26-.11.84-.33,1.79-.44,2.71-.12.86-.33,1.79-.44,2.71-.15,1.21-.31,2.39-.44,3.61-.12,1.18-.33,2.39-.44,3.61-.13,1.32-.31,2.72-.44,4.07-.19,2.15-.31,4.17-.44,6.32-.35,4.08-.66,8.09-.44,12.2l-40.23.45c-1.08-.49-.68-5.18-.67-6.32.07-1.33.29-3.15.44-4.52.07-.89.33-2.18.44-3.16.13-.85.29-1.86.44-2.71.13-.7.3-1.54.44-2.26s.29-1.54.44-2.26c.12-.54.31-1.23.44-1.81s.3-1.23.44-1.81c.06-.22.3-.86.44-1.36.11-.39.31-.92.44-1.36s.3-.92.44-1.36.3-.94.44-1.36c.16-.45.29-.96.44-1.36.22-.58.32-1.05.44-1.36.04-.11.28-.51.44-.9.32-.73.69-1.84.89-2.26.8-1.51,1.8-3.04,2.67-4.52,2.36-.06,4.75.09,7.11,0Z"/>
            <path class="cls-1" d="M95.21,51.08c.34,0,.62,0,.89,0,.15,0,.3,0,.44,0,7.44.12,21.75-.82,28,0,.14.02.31-.03.44,0,.81.18,1.49,1.04,1.78,1.81.14.38.15,1.28.44,2.26.18.6.29,1.55.44,2.26.19.82.28,1.82.44,2.71.15.85.32,1.88.44,2.71.17.99.31,2.16.44,3.16.15,1.16.32,2.47.44,3.61.15,1.44.35,3.11.44,4.52.16,2.03.35,4.31.44,6.32.03,1.44.23,10.97-.22,11.29h-39.12l-.67-39.98c.93-.1,1.79-.45,2.67-.68.57-.15,1.53.08,2.22,0Z"/>
            <path class="cls-1" d="M136.99,51.08c4.08.16,7.49.13,11.56,0,.29,0,.6,0,.89,0,2.3-.05,4.75.04,7.11,0,2.36.05,4.76-.11,7.11,0,.41,0,1.68,0,1.78,0,1.1.08,3.19-.25,4,0,1.42.44,2.35,2.82,3.11,4.07.41.96.98,2.22,1.33,3.16.16.43.24.83.44,1.36.16.42.27.88.44,1.36.15.41.29.91.44,1.36.14.41.31.94.44,1.36.14.44.33.96.44,1.36.16.55.28,1.2.44,1.81.14.56.42,1.23.44,1.36.14.58.33,1.27.44,1.81.12.58.35,1.3.44,1.81.14.72.33,1.57.44,2.26.15.86.32,1.86.44,2.71.12.97.37,2.27.44,3.16.17,1.35.38,3.2.44,4.52.03,1.02.17,6.94-.22,7.23l-40.67-.45c.21-4.26-.09-8.41-.44-12.65-.12-2-.27-3.89-.44-5.87-.15-1.5-.3-3.02-.44-4.52-.11-1.24-.31-2.42-.44-3.61-.12-1.08-.31-2.13-.44-3.16-.11-.92-.34-1.88-.44-2.71-.12-.91-.33-1.85-.44-2.71-.08-.78-.44-2.14-.44-2.26,0-.9,0-1.81,0-2.71.57-.06,1.22.09,1.78,0Z"/>
            <path class="cls-1" d="M52.98,130.58c-.05-.1-.24-1.5-.44-2.26-.18-.67-.28-1.52-.44-2.26-.19-.84-.26-1.8-.44-2.71-.14-.87-.32-1.86-.44-2.71-.17-.99-.31-2.16-.44-3.16-.15-1.16-.33-2.47-.44-3.61-.16-1.57-.35-3.42-.44-4.97-.17-2.17-.36-4.63-.44-6.78-.02-1.34-.18-9.64.22-9.94l40.23.68v38.85l-36.23.23c-.06-.64-.54-1.09-.67-1.36Z"/>
            <path class="cls-1" d="M86.32,183.43c-.33-.05-1.93-.37-2.22-.45s-1.02-.33-1.33-.45c-.53-.2-1.13-.36-1.33-.45-8.92-4.17-16.76-17.45-20.89-26.2-.28-.66-.62-1.56-.89-2.26-.17-.4-.39-.78-.44-.9-.12-.29-.21-.76-.44-1.36-.16-.4-.28-.89-.44-1.36-.23-.68-.43-.86-.44-.9-.15-.45-.3-.92-.44-1.36-.13-.41-.35-1.02-.44-1.36-.14-.5-.31-.92-.44-1.36-.16-.53-.29-1.22-.44-1.81,0-1.33-.47-1.29-.44-1.36.64-1.82,30.38-.65,34.23-.68v42.01c-.3.43-2.89.21-3.56.23Z"/>
            <path class="cls-1" d="M122.32,177.11c-.77.27-1.89.8-2.22.9-.49.15-1.09.38-1.33.45-.55.15-1.08.38-1.33.45-.5.14-1.26.44-1.33.45-.42.08-.9-.05-1.33,0v-.45c5.77-4.96,8.61-12.6,11.56-19.42.13-.29.3-.58.44-.9.33-.77.58-1.51.89-2.26.04-.09.26-.44.44-.9.29-.68.31-1.04.44-1.36.27-.66.31-1.02.44-1.36.26-.63.3-1,.44-1.36.02-.05.25-.38.44-.9.18-.49.28-.91.44-1.36s.29-.94.44-1.36c.31-.87.29-1.38.44-1.81.16-.45.29-.95.44-1.36.19-.51.28-.89.44-1.36.39-.67.63-.87.44-1.81l32.89-.23c-10.41,16.28-25.6,28.38-43.12,35.91Z"/>
          </g>
          <path id="sparkle" class="cls-1" d="M68.33,50.74c.3,2.38.62,4.79,1.17,7.12.91,3.85,2.22,6.58,6.03,8.17,3,1.25,6.9,1.71,10.13,2.13.03,0,.11-.02.09.04-2.87.41-5.79.74-8.58,1.57-3.94,1.18-5.94,3.02-7.19,6.96-.89,2.79-1.22,5.79-1.63,8.69l-.06.22c-.43-2.94-.75-5.98-1.64-8.83-1.2-3.85-3.11-5.76-6.96-6.96-2.77-.86-5.74-1.2-8.61-1.61l-.22-.06c2.94-.43,5.98-.75,8.83-1.64,3.85-1.2,5.76-3.1,6.96-6.96.87-2.77,1.26-5.9,1.63-8.79,0-.05,0-.04.05-.04Z"/>
          <path id="sparkle-2" data-name="sparkle" class="cls-1" d="M119.17,100.63c.32,2.53.66,5.1,1.25,7.58.96,4.1,2.36,7,6.42,8.69,3.19,1.33,7.34,1.82,10.78,2.27.03,0,.11-.03.09.04-3.05.44-6.16.78-9.13,1.67-4.2,1.25-6.32,3.21-7.65,7.41-.94,2.97-1.3,6.16-1.74,9.24l-.06.23c-.45-3.13-.8-6.37-1.75-9.4-1.28-4.1-3.31-6.13-7.41-7.41-2.95-.92-6.11-1.28-9.16-1.71l-.23-.06c3.13-.45,6.37-.8,9.4-1.75,4.1-1.28,6.13-3.3,7.41-7.41.92-2.95,1.35-6.28,1.73-9.36,0-.05-.01-.04.05-.04Z"/>
        </g>
      </g>
    </g>
  </g>
</svg>