<?xml version="1.0" encoding="UTF-8"?>
<svg id="Layer_2" data-name="Layer 2" xmlns="http://www.w3.org/2000/svg" viewBox="0 0 2520.12 170">
  <defs>
    <style>
      .cls-1, .cls-2 {
        letter-spacing: -.02em;
      }

      .cls-3 {
        letter-spacing: 0em;
      }

      .cls-3, .cls-4, .cls-5, .cls-6, .cls-7, .cls-8, .cls-9, .cls-10, .cls-11, .cls-12, .cls-13, .cls-14, .cls-15, .cls-16, .cls-17, .cls-18, .cls-19, .cls-20, .cls-21 {
        font-family: Montserrat-MediumItalic, Montserrat;
        font-variation-settings: 'wght' 500;
        font-weight: 500;
      }

      .cls-22 {
        letter-spacing: 0em;
      }

      .cls-4 {
        letter-spacing: -.02em;
      }

      .cls-23, .cls-24, .cls-25, .cls-26, .cls-27, .cls-28, .cls-29, .cls-30, .cls-31, .cls-32, .cls-33, .cls-34, .cls-35, .cls-36, .cls-37, .cls-38, .cls-39, .cls-40, .cls-41, .cls-42, .cls-43, .cls-44, .cls-2, .cls-45, .cls-46, .cls-47, .cls-48, .cls-49, .cls-50, .cls-51, .cls-52, .cls-53, .cls-54, .cls-55 {
        font-variation-settings: 'wght' 300;
        font-weight: 300;
      }

      .cls-23, .cls-24, .cls-25, .cls-26, .cls-27, .cls-28, .cls-29, .cls-30, .cls-31, .cls-32, .cls-33, .cls-34, .cls-35, .cls-36, .cls-38, .cls-39, .cls-40, .cls-41, .cls-42, .cls-43, .cls-44, .cls-2, .cls-45, .cls-46, .cls-47, .cls-48, .cls-49, .cls-50, .cls-51, .cls-53, .cls-54, .cls-55 {
        font-family: Montserrat-LightItalic, Montserrat;
      }

      .cls-23, .cls-27, .cls-28, .cls-29, .cls-30, .cls-32, .cls-33, .cls-35, .cls-56, .cls-38, .cls-39, .cls-46, .cls-57, .cls-48, .cls-49, .cls-51 {
        font-style: italic;
      }

      .cls-58 {
        letter-spacing: 0em;
      }

      .cls-59 {
        letter-spacing: 0em;
      }

      .cls-59, .cls-60, .cls-61, .cls-62, .cls-63, .cls-64, .cls-65, .cls-66, .cls-67, .cls-68, .cls-69 {
        font-family: Montserrat-Bold, Montserrat;
        font-variation-settings: 'wght' 700;
        font-weight: 700;
      }

      .cls-70, .cls-43 {
        letter-spacing: -.01em;
      }

      .cls-5 {
        letter-spacing: 0em;
      }

      .cls-71 {
        fill: #fff;
      }

      .cls-24, .cls-72 {
        letter-spacing: -.02em;
      }

      .cls-73 {
        letter-spacing: -.01em;
      }

      .cls-25 {
        letter-spacing: -.02em;
      }

      .cls-26 {
        letter-spacing: -.01em;
      }

      .cls-74, .cls-10 {
        letter-spacing: .01em;
      }

      .cls-6 {
        letter-spacing: -.02em;
      }

      .cls-7 {
        letter-spacing: 0em;
      }

      .cls-75 {
        letter-spacing: -.01em;
      }

      .cls-27 {
        letter-spacing: -.01em;
      }

      .cls-28 {
        letter-spacing: 0em;
      }

      .cls-8, .cls-76 {
        letter-spacing: -.02em;
      }

      .cls-60 {
        letter-spacing: -.01em;
      }

      .cls-9, .cls-77 {
        letter-spacing: -.01em;
      }

      .cls-29 {
        letter-spacing: -.06em;
      }

      .cls-30 {
        letter-spacing: 0em;
      }

      .cls-61, .cls-52 {
        letter-spacing: 0em;
      }

      .cls-31, .cls-78 {
        letter-spacing: .01em;
      }

      .cls-32 {
        letter-spacing: 0em;
      }

      .cls-11, .cls-79 {
        letter-spacing: 0em;
      }

      .cls-80 {
        letter-spacing: -.03em;
      }

      .cls-62 {
        letter-spacing: 0em;
      }

      .cls-33 {
        letter-spacing: 0em;
      }

      .cls-34 {
        letter-spacing: 0em;
      }

      .cls-81 {
        fill: #f2e205;
      }

      .cls-82, .cls-17 {
        letter-spacing: .01em;
      }

      .cls-83, .cls-44 {
        letter-spacing: 0em;
      }

      .cls-84 {
        fill: #f1f2f2;
      }

      .cls-85, .cls-42 {
        letter-spacing: 0em;
      }

      .cls-86 {
        fill: #231f20;
      }

      .cls-87 {
        letter-spacing: -.01em;
      }

      .cls-35 {
        letter-spacing: -.01em;
      }

      .cls-63 {
        letter-spacing: -.01em;
      }

      .cls-88 {
        letter-spacing: -.02em;
      }

      .cls-64 {
        letter-spacing: 0em;
      }

      .cls-89, .cls-53 {
        letter-spacing: 0em;
      }

      .cls-90 {
        letter-spacing: 0em;
      }

      .cls-91 {
        letter-spacing: 0em;
      }

      .cls-36 {
        letter-spacing: -.01em;
      }

      .cls-92 {
        letter-spacing: .02em;
      }

      .cls-93 {
        font-size: 18px;
      }

      .cls-12, .cls-94 {
        letter-spacing: .01em;
      }

      .cls-65 {
        letter-spacing: 0em;
      }

      .cls-95 {
        letter-spacing: 0em;
      }

      .cls-66 {
        letter-spacing: 0em;
      }

      .cls-56 {
        font-size: 14px;
      }

      .cls-13 {
        letter-spacing: -.02em;
      }

      .cls-37, .cls-52 {
        font-family: Montserrat-Light, Montserrat;
      }

      .cls-38 {
        letter-spacing: 0em;
      }

      .cls-14 {
        letter-spacing: -.03em;
      }

      .cls-15 {
        letter-spacing: 0em;
      }

      .cls-39 {
        letter-spacing: 0em;
      }

      .cls-96 {
        letter-spacing: -.02em;
      }

      .cls-40 {
        letter-spacing: -.01em;
      }

      .cls-97 {
        fill: #458c57;
      }

      .cls-98 {
        fill: #d94032;
      }

      .cls-99 {
        letter-spacing: -.02em;
      }

      .cls-68 {
        letter-spacing: .01em;
      }

      .cls-16 {
        letter-spacing: -.01em;
      }

      .cls-41 {
        letter-spacing: 0em;
      }

      .cls-18 {
        letter-spacing: -.02em;
      }

      .cls-100 {
        font-size: 18.03px;
      }

      .cls-101 {
        letter-spacing: -.02em;
      }

      .cls-102, .cls-45 {
        letter-spacing: 0em;
      }

      .cls-103 {
        fill: #f250a9;
      }

      .cls-69 {
        letter-spacing: 0em;
      }

      .cls-46 {
        letter-spacing: 0em;
      }

      .cls-57 {
        font-size: 14.03px;
      }

      .cls-48 {
        letter-spacing: -.01em;
      }

      .cls-49 {
        letter-spacing: 0em;
      }

      .cls-104 {
        fill: #0540f2;
      }

      .cls-50 {
        letter-spacing: -.01em;
      }

      .cls-20 {
        letter-spacing: -.02em;
      }

      .cls-105 {
        letter-spacing: -.03em;
      }

      .cls-51 {
        letter-spacing: 0em;
      }

      .cls-21 {
        letter-spacing: -.01em;
      }

      .cls-106 {
        fill: #e6e7e8;
      }

      .cls-54 {
        letter-spacing: 0em;
      }

      .cls-55 {
        letter-spacing: 0em;
      }
    </style>
  </defs>
  <g id="Layer_1-2" data-name="Layer 1">
    <g id="palette">
      <g>
        <rect class="cls-84" width="360.12" height="100.1"/>
        <rect class="cls-71" y="68.29" width="360.12" height="31.81"/>
        <text class="cls-100" transform="translate(11.48 90.65) scale(.9 1)"><tspan class="cls-67" x="0" y="0">#</tspan><tspan class="cls-68" x="12.98" y="0">F</tspan><tspan class="cls-67" x="24.78" y="0">1</tspan><tspan class="cls-66" x="31.85" y="0">F</tspan><tspan class="cls-67" x="43.44" y="0">2</tspan><tspan class="cls-66" x="54.08" y="0">F</tspan><tspan class="cls-62" x="65.68" y="0">2</tspan><tspan class="cls-37" x="76.32" y="0" xml:space="preserve">  </tspan><tspan class="cls-33" x="85.58" y="0">A</tspan><tspan class="cls-23" x="98.21" y="0">sht</tspan><tspan class="cls-35" x="126.16" y="0">r</tspan><tspan class="cls-38" x="133.01" y="0">a</tspan><tspan class="cls-23" x="145.06" y="0">y G</tspan><tspan class="cls-35" x="173.15" y="0">r</tspan><tspan class="cls-38" x="180" y="0">a</tspan><tspan class="cls-51" x="192.05" y="0">y</tspan></text>
        <rect class="cls-106" y="100.08" width="360.12" height="69.92"/>
        <text class="cls-57" transform="translate(12.48 117.99) scale(.9 1)"><tspan class="cls-47" x="0" y="0">En </tspan><tspan class="cls-45" x="22.43" y="0">l</tspan><tspan class="cls-54" x="25.99" y="0">y</tspan><tspan class="cls-47" x="33.31" y="0">s, g</tspan><tspan class="cls-43" x="55.99" y="0">r</tspan><tspan class="cls-47" x="61.32" y="0">å</tspan><tspan class="cls-34" x="70.79" y="0">-</tspan><tspan class="cls-47" x="76.27" y="0">agtig </tspan><tspan class="cls-41" x="117.73" y="0">f</tspan><tspan class="cls-47" x="122.2" y="0">a</tspan><tspan class="cls-31" x="131.67" y="0">r</tspan><tspan class="cls-26" x="137.41" y="0">v</tspan><tspan class="cls-47" x="144.6" y="0">e der </tspan><tspan class="cls-24" x="183.58" y="0">k</tspan><tspan class="cls-47" x="191.43" y="0">omplimen</tspan><tspan class="cls-25" x="264.59" y="0">t</tspan><tspan class="cls-47" x="269.92" y="0">e</tspan><tspan class="cls-40" x="278.31" y="0">r</tspan><tspan class="cls-47" x="283.64" y="0">e </tspan><tspan class="cls-19" x="295.63" y="0">g</tspan><tspan class="cls-16" x="305.31" y="0">r</tspan><tspan class="cls-19" x="310.89" y="0">å</tspan><tspan class="cls-15" x="320.45" y="0">z</tspan><tspan class="cls-19" x="327.65" y="0">onen</tspan><tspan class="cls-47" x="364.23" y="0">. </tspan><tspan class="cls-36" x="0" y="16.83">P</tspan><tspan class="cls-47" x="9.85" y="16.83">er</tspan><tspan class="cls-41" x="23.76" y="16.83">f</tspan><tspan class="cls-47" x="28.23" y="16.83">ekt til </tspan><tspan class="cls-6" x="70.49" y="16.83">t</tspan><tspan class="cls-19" x="76.09" y="16.83">e</tspan><tspan class="cls-18" x="84.66" y="16.83">k</tspan><tspan class="cls-19" x="92.97" y="16.83">s</tspan><tspan class="cls-12" x="100" y="16.83">t</tspan><tspan class="cls-19" x="105.99" y="16.83">, a</tspan><tspan class="cls-15" x="122.51" y="16.83">cc</tspan><tspan class="cls-19" x="138.31" y="16.83">ent eller baggrund</tspan><tspan class="cls-47" x="273.38" y="16.83">.</tspan></text>
      </g>
      <g>
        <rect class="cls-86" x="360.12" width="359.77" height="100.1"/>
        <rect class="cls-71" x="360.12" y="68.29" width="359.77" height="31.81"/>
        <text class="cls-100" transform="translate(371.59 90.65) scale(.9 1)"><tspan class="cls-67" x="0" y="0">#231</tspan><tspan class="cls-66" x="41.37" y="0">F</tspan><tspan class="cls-67" x="52.96" y="0">20</tspan><tspan class="cls-37" x="75.85" y="0" xml:space="preserve">  </tspan><tspan class="cls-30" x="85.11" y="0">Bla</tspan><tspan class="cls-46" x="115.55" y="0">c</tspan><tspan class="cls-23" x="125.4" y="0">k Hole</tspan></text>
        <rect class="cls-106" x="360.12" y="100.08" width="359.88" height="69.92"/>
        <text class="cls-57" transform="translate(372.6 117.99) scale(.9 1)"><tspan class="cls-47"><tspan x="0" y="0">En mø</tspan><tspan class="cls-22" x="46.05" y="0">r</tspan><tspan x="51.45" y="0">k </tspan><tspan class="cls-22" x="63.2" y="0">f</tspan><tspan x="67.67" y="0">a</tspan><tspan class="cls-92" x="77.14" y="0">r</tspan><tspan class="cls-88" x="82.88" y="0">v</tspan><tspan x="90.07" y="0">e med et tint af </tspan><tspan class="cls-102" x="201.61" y="0">l</tspan><tspan class="cls-90" x="205.17" y="0">y</tspan><tspan x="212.49" y="0">shed. Ligesom et so</tspan><tspan class="cls-78" x="349.63" y="0">r</tspan><tspan x="355.37" y="0">t </tspan></tspan><tspan class="cls-47"><tspan x="0" y="16.83">hul, </tspan><tspan class="cls-72" x="28.89" y="16.83">k</tspan><tspan x="36.75" y="16.83">an </tspan><tspan class="cls-102" x="59.26" y="16.83">l</tspan><tspan class="cls-90" x="62.82" y="16.83">y</tspan><tspan x="70.14" y="16.83">set nå ud </tspan><tspan class="cls-22" x="139.4" y="16.83">f</tspan><tspan x="143.87" y="16.83">ør poin</tspan><tspan class="cls-73" x="192.96" y="16.83">t</tspan><tspan class="cls-94" x="198.42" y="16.83">-</tspan><tspan x="203.9" y="16.83">o</tspan><tspan class="cls-73" x="212.6" y="16.83">f</tspan><tspan x="217.06" y="16.83">-n</tspan><tspan class="cls-94" x="231.84" y="16.83">o</tspan><tspan x="240.68" y="16.83">-</tspan><tspan class="cls-70" x="246.02" y="16.83">r</tspan><tspan x="251.35" y="16.83">etu</tspan><tspan class="cls-22" x="274.72" y="16.83">r</tspan><tspan x="280.12" y="16.83">n. God som </tspan></tspan><tspan class="cls-19" x="0" y="33.66">baggrund, a</tspan><tspan class="cls-15" x="89.37" y="33.66">cc</tspan><tspan class="cls-19" x="105.16" y="33.66">ent eller </tspan><tspan class="cls-6" x="167.39" y="33.66">t</tspan><tspan class="cls-19" x="172.99" y="33.66">e</tspan><tspan class="cls-18" x="181.56" y="33.66">k</tspan><tspan class="cls-19" x="189.88" y="33.66">st</tspan><tspan class="cls-47" x="202.75" y="33.66">.</tspan></text>
      </g>
      <g>
        <rect class="cls-103" x="720" width="360" height="99.92"/>
        <rect class="cls-71" x="720" y="68.17" width="360" height="31.75"/>
        <text class="cls-93" transform="translate(731.48 90.48) scale(.9 1)"><tspan class="cls-67" x="0" y="0">#</tspan><tspan class="cls-59" x="12.96" y="0">F</tspan><tspan class="cls-67" x="24.53" y="0">25</tspan><tspan class="cls-63" x="45.86" y="0">0</tspan><tspan class="cls-60" x="57.89" y="0">A</tspan><tspan class="cls-61" x="71.46" y="0">9</tspan><tspan class="cls-37" x="82.93" y="0" xml:space="preserve">  </tspan><tspan class="cls-32" x="92.18" y="0">Ele</tspan><tspan class="cls-28" x="119.68" y="0">c</tspan><tspan class="cls-23" x="129.78" y="0">t</tspan><tspan class="cls-39" x="136.96" y="0">r</tspan><tspan class="cls-23" x="143.89" y="0">ic Rose</tspan></text>
        <rect class="cls-106" x="720" y="99.89" width="360.12" height="70.03"/>
        <text class="cls-56" transform="translate(732.48 117.77) scale(.9 1)"><tspan class="cls-47"><tspan x="0" y="0">En stæ</tspan><tspan class="cls-83" x="48.45" y="0">r</tspan><tspan class="cls-82" x="53.84" y="0">k</tspan><tspan x="62.12" y="0">, ene</tspan><tspan class="cls-87" x="94.68" y="0">r</tspan><tspan x="100" y="0">gisk pink der signale</tspan><tspan class="cls-75" x="243.61" y="0">r</tspan><tspan x="248.93" y="0">er </tspan><tspan class="cls-83" x="266.41" y="0">k</tspan><tspan class="cls-87" x="274.42" y="0">r</tspan><tspan x="279.74" y="0">eativi</tspan><tspan class="cls-99" x="317.85" y="0">t</tspan><tspan x="323.17" y="0">e</tspan><tspan class="cls-58" x="331.54" y="0">t</tspan><tspan x="337.27" y="0">, </tspan></tspan><tspan class="cls-47" x="0" y="16.8">ungdom og sel</tspan><tspan class="cls-55" x="105.5" y="16.8">v</tspan><tspan class="cls-47" x="112.81" y="16.8">sik</tspan><tspan class="cls-2" x="131.29" y="16.8">k</tspan><tspan class="cls-47" x="139.13" y="16.8">e</tspan><tspan class="cls-42" x="147.5" y="16.8">r</tspan><tspan class="cls-47" x="152.89" y="16.8">hed. </tspan><tspan class="cls-50" x="186.53" y="16.8">P</tspan><tspan class="cls-47" x="196.36" y="16.8">er</tspan><tspan class="cls-44" x="210.25" y="16.8">f</tspan><tspan class="cls-47" x="214.71" y="16.8">ekt til at </tspan><tspan class="cls-7" x="275.53" y="16.8">f</tspan><tspan class="cls-19" x="280.36" y="16.8">ange </tspan><tspan class="cls-19" x="0" y="33.6">opmæ</tspan><tspan class="cls-11" x="47.08" y="33.6">r</tspan><tspan class="cls-8" x="52.72" y="33.6">k</tspan><tspan class="cls-19" x="61.02" y="33.6">somhed</tspan><tspan class="cls-47" x="119.36" y="33.6">.</tspan></text>
      </g>
      <g>
        <rect class="cls-104" x="1080" width="360" height="99.92"/>
        <rect class="cls-71" x="1080" y="68.17" width="360" height="31.75"/>
        <text class="cls-93" transform="translate(1091.48 90.48) scale(.9 1)"><tspan class="cls-67" x="0" y="0">#0540</tspan><tspan class="cls-59" x="60.51" y="0">F</tspan><tspan class="cls-67" x="72.09" y="0">2</tspan><tspan class="cls-52" x="82.71" y="0" xml:space="preserve">  </tspan><tspan class="cls-23" x="91.96" y="0">Deep Pulse</tspan></text>
        <rect class="cls-106" x="1080.12" y="99.89" width="360" height="70.03"/>
        <text class="cls-56" transform="translate(1092.48 115.72) scale(.9 1)"><tspan class="cls-47"><tspan x="0" y="0">En </tspan><tspan class="cls-79" x="22.39" y="0">d</tspan><tspan x="31.74" y="0">y</tspan><tspan class="cls-76" x="39.13" y="0">b</tspan><tspan x="48.34" y="0">, mæ</tspan><tspan class="cls-87" x="83.42" y="0">t</tspan><tspan class="cls-99" x="88.81" y="0">t</tspan><tspan class="cls-91" x="94.13" y="0">et blå der til</tspan><tspan class="cls-83" x="177.67" y="0">f</tspan><tspan x="182.14" y="0">ø</tspan><tspan class="cls-87" x="190.82" y="0">r</tspan><tspan x="196.14" y="0">er </tspan><tspan class="cls-80" x="213.62" y="0">t</tspan><tspan x="218.75" y="0">yngde og </tspan><tspan class="cls-1" x="288.35" y="0">k</tspan><tspan x="296.19" y="0">ont</tspan><tspan class="cls-87" x="319.88" y="0">r</tspan><tspan x="325.2" y="0">as</tspan><tspan class="cls-82" x="341.34" y="0">t</tspan><tspan x="347.07" y="0">. </tspan></tspan><tspan class="cls-47"><tspan x="0" y="16.8">Den s</tspan><tspan class="cls-1" x="39.65" y="16.8">k</tspan><tspan x="47.49" y="16.8">aber balan</tspan><tspan class="cls-83" x="125.3" y="16.8">c</tspan><tspan x="132.94" y="16.8">e i </tspan><tspan class="cls-85" x="152.16" y="16.8">f</tspan><tspan x="156.63" y="16.8">a</tspan><tspan class="cls-74" x="166.08" y="16.8">r</tspan><tspan class="cls-77" x="171.8" y="16.8">v</tspan><tspan x="178.99" y="16.8">epale</tspan><tspan class="cls-87" x="218.28" y="16.8">t</tspan><tspan class="cls-96" x="223.67" y="16.8">t</tspan><tspan x="228.99" y="16.8">en og funge</tspan><tspan class="cls-75" x="313.51" y="16.8">r</tspan><tspan x="318.83" y="16.8">er godt </tspan></tspan><tspan class="cls-47" x="0" y="33.6" xml:space="preserve">som  den </tspan><tspan class="cls-19" x="68.3" y="33.6">p</tspan><tspan class="cls-11" x="77.85" y="33.6">r</tspan><tspan class="cls-19" x="83.49" y="33.6">imæ</tspan><tspan class="cls-21" x="116.04" y="33.6">r</tspan><tspan class="cls-19" x="121.62" y="33.6">e </tspan><tspan class="cls-7" x="133.93" y="33.6">f</tspan><tspan class="cls-19" x="138.76" y="33.6">a</tspan><tspan class="cls-10" x="148.31" y="33.6">r</tspan><tspan class="cls-9" x="154.26" y="33.6">v</tspan><tspan class="cls-19" x="161.88" y="33.6">e</tspan><tspan class="cls-47" x="170.43" y="33.6">.</tspan></text>
      </g>
      <g>
        <rect class="cls-97" x="1440" width="360" height="99.92"/>
        <rect class="cls-71" x="1440" y="68.17" width="360" height="31.75"/>
        <text class="cls-93" transform="translate(1451.48 90.48) scale(.9 1)"><tspan class="cls-67" x="0" y="0">#458</tspan><tspan class="cls-65" x="47.95" y="0">C</tspan><tspan class="cls-60" x="60.8" y="0">5</tspan><tspan class="cls-67" x="71.3" y="0">7</tspan><tspan class="cls-52" x="82.46" y="0" xml:space="preserve">  </tspan><tspan class="cls-23" x="91.71" y="0">U</tspan><tspan class="cls-49" x="105.53" y="0">r</tspan><tspan class="cls-23" x="112.46" y="0">ban Moss</tspan></text>
        <rect class="cls-106" x="1440.12" y="99.89" width="360" height="70.03"/>
        <text class="cls-56" transform="translate(1452.48 117.77) scale(.9 1)"><tspan class="cls-47"><tspan x="0" y="0">En dæmpet g</tspan><tspan class="cls-87" x="97.07" y="0">r</tspan><tspan x="102.39" y="0">øn med et natu</tspan><tspan class="cls-85" x="211.79" y="0">r</tspan><tspan x="217.18" y="0">ligt præg. Den b</tspan><tspan class="cls-83" x="330.32" y="0">r</tspan><tspan x="335.71" y="0">inger </tspan></tspan><tspan class="cls-47"><tspan x="0" y="16.8">jo</tspan><tspan class="cls-87" x="12.4" y="16.8">r</tspan><tspan x="17.72" y="16.8">d</tspan><tspan class="cls-85" x="27.17" y="16.8">f</tspan><tspan x="31.64" y="16.8">o</tspan><tspan class="cls-83" x="40.32" y="16.8">r</tspan><tspan x="45.71" y="16.8">bindelse og </tspan><tspan class="cls-75" x="130.2" y="16.8">r</tspan><tspan x="135.52" y="16.8">o til et elle</tspan><tspan class="cls-89" x="205.89" y="16.8">r</tspan><tspan x="211.37" y="16.8">s sprælsk udt</tspan><tspan class="cls-95" x="303.58" y="16.8">r</tspan><tspan x="308.96" y="16.8">y</tspan><tspan class="cls-58" x="316.35" y="16.8">k</tspan><tspan x="324.62" y="16.8">, god </tspan></tspan><tspan class="cls-47" x="0" y="33.6">som </tspan><tspan class="cls-19" x="33.87" y="33.6">a</tspan><tspan class="cls-7" x="43.41" y="33.6">cc</tspan><tspan class="cls-19" x="59.18" y="33.6">ent eller baggrund</tspan><tspan class="cls-47" x="194.01" y="33.6">.</tspan></text>
      </g>
      <g>
        <rect class="cls-81" x="1800" width="360" height="99.92"/>
        <rect class="cls-71" x="1800" y="68.17" width="360" height="31.75"/>
        <text class="cls-93" transform="translate(1811.48 90.48) scale(.9 1)"><tspan class="cls-67" x="0" y="0">#</tspan><tspan class="cls-59" x="12.96" y="0">F</tspan><tspan class="cls-67" x="24.53" y="0">2</tspan><tspan class="cls-64" x="35.15" y="0">E</tspan><tspan class="cls-67" x="47.16" y="0">205</tspan><tspan class="cls-52" x="80.71" y="0" xml:space="preserve">  </tspan><tspan class="cls-23" x="89.96" y="0">Flashbeam </tspan><tspan class="cls-29" x="197.73" y="0">Y</tspan><tspan class="cls-23" x="208.18" y="0">ell</tspan><tspan class="cls-48" x="228.34" y="0">o</tspan><tspan class="cls-23" x="239.23" y="0">w</tspan></text>
        <rect class="cls-106" x="1800.12" y="99.89" width="360" height="70.03"/>
        <text class="cls-56" transform="translate(1812.48 115.72) scale(.9 1)"><tspan class="cls-47"><tspan x="0" y="0">En s</tspan><tspan class="cls-1" x="29.08" y="0">k</tspan><tspan x="36.92" y="0">a</tspan><tspan class="cls-83" x="46.37" y="0">r</tspan><tspan class="cls-76" x="51.76" y="0">p</tspan><tspan x="60.97" y="0">, næs</tspan><tspan class="cls-96" x="97.27" y="0">t</tspan><tspan x="102.59" y="0">en neongul </tspan><tspan class="cls-85" x="186.04" y="0">f</tspan><tspan x="190.51" y="0">a</tspan><tspan class="cls-74" x="199.96" y="0">r</tspan><tspan class="cls-77" x="205.68" y="0">v</tspan><tspan x="212.87" y="0">e der s</tspan><tspan class="cls-1" x="258.46" y="0">k</tspan><tspan x="266.3" y="0">aber ene</tspan><tspan class="cls-87" x="328.85" y="0">r</tspan><tspan x="334.17" y="0">gi og </tspan></tspan><tspan class="cls-53" x="0" y="16.8">ø</tspan><tspan class="cls-47" x="8.64" y="16.8">jeblik</tspan><tspan class="cls-2" x="45.63" y="16.8">k</tspan><tspan class="cls-47" x="53.47" y="16.8">elig synlighed. God til </tspan><tspan class="cls-7" x="205.33" y="16.8">c</tspan><tspan class="cls-19" x="213.22" y="16.8">al</tspan><tspan class="cls-14" x="226.67" y="16.8">l</tspan><tspan class="cls-17" x="230.2" y="16.8">-</tspan><tspan class="cls-4" x="235.7" y="16.8">t</tspan><tspan class="cls-17" x="241.28" y="16.8">o-</tspan><tspan class="cls-19" x="255.82" y="16.8">a</tspan><tspan class="cls-3" x="265.36" y="16.8">c</tspan><tspan class="cls-19" x="273.46" y="16.8">tion eller </tspan><tspan class="cls-19" x="0" y="33.6">vigtige ma</tspan><tspan class="cls-11" x="77.46" y="33.6">r</tspan><tspan class="cls-13" x="83.1" y="33.6">k</tspan><tspan class="cls-19" x="91.33" y="33.6">e</tspan><tspan class="cls-11" x="99.89" y="33.6">r</tspan><tspan class="cls-19" x="105.53" y="33.6">inger</tspan><tspan class="cls-47" x="142.92" y="33.6">.</tspan></text>
      </g>
      <g>
        <rect class="cls-98" x="2160" width="360" height="99.92"/>
        <rect class="cls-71" x="2160" y="68.17" width="360" height="31.75"/>
        <text class="cls-93" transform="translate(2171.48 90.48) scale(.9 1)"><tspan class="cls-67" x="0" y="0">#D94</tspan><tspan class="cls-65" x="51.7" y="0">0</tspan><tspan class="cls-69" x="63.74" y="0">3</tspan><tspan class="cls-67" x="74.3" y="0">2</tspan><tspan class="cls-52" x="84.92" y="0" xml:space="preserve">  </tspan><tspan class="cls-23" x="94.17" y="0">B</tspan><tspan class="cls-39" x="107.71" y="0">r</tspan><tspan class="cls-23" x="114.64" y="0">i</tspan><tspan class="cls-39" x="119.34" y="0">c</tspan><tspan class="cls-23" x="129.17" y="0">kfi</tspan><tspan class="cls-27" x="150.23" y="0">r</tspan><tspan class="cls-23" x="157.07" y="0">e</tspan></text>
        <rect class="cls-106" x="2160.12" y="99.89" width="360" height="70.03"/>
        <text class="cls-56" transform="translate(2172.48 117.77) scale(.9 1)"><tspan class="cls-47"><tspan x="0" y="0">En </tspan><tspan class="cls-101" x="22.39" y="0">v</tspan><tspan x="29.57" y="0">a</tspan><tspan class="cls-85" x="39.02" y="0">r</tspan><tspan x="44.41" y="0">m </tspan><tspan class="cls-87" x="62.9" y="0">r</tspan><tspan x="68.22" y="0">ø</tspan><tspan class="cls-105" x="76.9" y="0">d</tspan><tspan class="cls-82" x="85.86" y="0">-</tspan><tspan x="91.33" y="0">o</tspan><tspan class="cls-87" x="100.01" y="0">r</tspan><tspan x="105.33" y="0">ange med </tspan><tspan class="cls-85" x="182.04" y="0">k</tspan><tspan class="cls-87" x="190.05" y="0">r</tspan><tspan x="195.37" y="0">aft og </tspan><tspan class="cls-101" x="240.42" y="0">v</tspan><tspan x="247.6" y="0">a</tspan><tspan class="cls-85" x="257.05" y="0">r</tspan><tspan x="262.44" y="0">me. Den </tspan></tspan><tspan class="cls-47"><tspan x="0" y="16.8">signale</tspan><tspan class="cls-87" x="50.79" y="16.8">r</tspan><tspan x="56.11" y="16.8">er b</tspan><tspan class="cls-95" x="83.05" y="16.8">e</tspan><tspan x="91.28" y="16.8">vægelse, in</tspan><tspan class="cls-96" x="168.57" y="16.8">t</tspan><tspan x="173.89" y="16.8">ensi</tspan><tspan class="cls-99" x="202.03" y="16.8">t</tspan><tspan x="207.35" y="16.8">et og engagemen</tspan><tspan class="cls-58" x="334.13" y="16.8">t</tspan><tspan x="339.86" y="16.8">, </tspan></tspan><tspan class="cls-47" x="0" y="33.6">per</tspan><tspan class="cls-44" x="23.34" y="33.6">f</tspan><tspan class="cls-47" x="27.8" y="33.6">ekt til at </tspan><tspan class="cls-19" x="88.62" y="33.6">unde</tspan><tspan class="cls-5" x="125.73" y="33.6">r</tspan><tspan class="cls-19" x="131.46" y="33.6">st</tspan><tspan class="cls-21" x="144.31" y="33.6">r</tspan><tspan class="cls-19" x="149.88" y="33.6">ege vigtige buds</tspan><tspan class="cls-20" x="269.11" y="33.6">k</tspan><tspan class="cls-19" x="277.35" y="33.6">aber</tspan><tspan class="cls-47" x="310.74" y="33.6">.</tspan></text>
      </g>
    </g>
  </g>
</svg>