<?xml version="1.0" encoding="UTF-8"?>
<svg id="Layer_2" data-name="Layer 2" xmlns="http://www.w3.org/2000/svg" viewBox="0 0 660.9 183.48">
  <defs>
    <style>
      .cls-1 {
        fill: #fff;
      }
    </style>
  </defs>
  <g id="Layer_1-2" data-name="Layer 1">
    <g id="logo2_white">
      <g>
        <path class="cls-1" d="M51.44,108.39c0-.95-.77-1.72-1.71-1.72h-24.15c-7.55,0-13.7,1.85-18.45,5.55C2.37,115.92,0,121.23,0,128.15,0,135.63,2.31,141.14,6.94,144.71c4.63,3.56,10.21,6.11,16.75,7.63,4.03.9,7.06,1.92,9.11,3.06,2.04,1.14,3.07,2.92,3.07,5.35,0,2.22-.96,3.91-2.88,5.09-1.92,1.18-4.45,1.76-7.6,1.76H1.67c-.87,0-1.57.7-1.57,1.57L0,181.88c0,.88.7,1.59,1.57,1.59h22.78c5.47,0,10.26-.93,14.35-2.8,4.09-1.87,7.24-4.55,9.44-8.04,2.2-3.49,3.3-7.63,3.3-12.4s-1.04-8.81-3.11-11.89c-2.08-3.08-4.8-5.47-8.16-7.16-3.37-1.69-7.6-3.23-12.69-4.62-4.53-1.17-7.66-2.25-9.39-3.22-1.73-.97-2.6-2.53-2.6-4.67,0-4.15,3.11-6.11,9.34-6.11h24.91c.94,0,1.71-.77,1.71-1.72v-12.46Z"/>
        <path class="cls-1" d="M89.82,106.74c4.93,0,9.23,1.11,12.9,3.33,3.67,2.22,6.48,5.37,8.44,9.44,1.96,4.08,2.94,8.87,2.94,14.38s-.98,10.32-2.94,14.43c-1.96,4.11-4.77,7.28-8.44,9.5-3.67,2.22-7.97,3.33-12.9,3.33h-11.57v20.39c0,1.29-.54,1.93-1.61,1.93h-11.95c-1.08,0-1.61-.64-1.61-1.93v-72.87c0-1.29.54-1.93,1.61-1.93h25.14ZM87.74,145.16c3.6,0,6.29-.93,8.06-2.79,1.77-1.86,2.66-4.69,2.66-8.48,0-7.51-3.57-11.27-10.72-11.27h-9.48v22.54h9.48Z"/>
        <path class="cls-1" d="M176.61,154.02c0,9.27-2.44,16.49-7.3,21.67-4.87,5.18-11.67,7.78-20.39,7.78s-15.43-2.59-20.3-7.78-7.3-12.41-7.3-21.67v-17.94c0-9.19,2.43-16.38,7.3-21.57,4.87-5.18,11.63-7.78,20.3-7.78s15.52,2.58,20.39,7.73c4.87,5.15,7.3,12.36,7.3,21.62v17.94ZM136.87,153.71c0,4.63,1.01,8.13,3.04,10.47,2.02,2.35,5.03,3.53,9.01,3.53,8.03,0,12.05-4.67,12.05-14v-17.32c0-9.26-4.02-13.9-12.05-13.9-3.98,0-6.99,1.18-9.01,3.53-2.02,2.35-3.04,5.81-3.04,10.37v17.32Z"/>
        <path class="cls-1" d="M232.95,106.74c1.08,0,1.61.64,1.61,1.93v12.23c0,1.22-.54,1.82-1.61,1.82h-17.36v58.81c0,1.29-.54,1.93-1.61,1.93h-11.95c-1.08,0-1.61-.64-1.61-1.93v-58.81h-17.36c-1.14,0-1.71-.61-1.71-1.82v-12.23c0-1.29.57-1.93,1.71-1.93h49.89Z"/>
        <path class="cls-1" d="M244.52,183.48c-1.14,0-1.71-.64-1.71-1.93v-72.87c0-1.29.57-1.93,1.71-1.93h11.95c1.08,0,1.61.64,1.61,1.93v58.81h25.89c1.07,0,1.61.61,1.61,1.82v12.24c0,1.29-.54,1.93-1.61,1.93h-39.46Z"/>
        <path class="cls-1" d="M308.92,181.54c0,1.29-.57,1.93-1.71,1.93h-11.86c-1.14,0-1.71-.64-1.71-1.93v-72.87c0-1.29.57-1.93,1.71-1.93h11.86c1.14,0,1.71.64,1.71,1.93v72.87Z"/>
        <path class="cls-1" d="M361.84,180.58c-4.24,1.93-8.76,2.9-13.56,2.9-5.44,0-10.21-1.07-14.32-3.21s-7.32-5.28-9.63-9.42c-2.31-4.14-3.46-9.15-3.46-15.02v-21.64c0-8.77,2.48-15.53,7.45-20.3,4.96-4.76,11.59-7.14,19.87-7.14,4.05,0,8.08.59,12.09,1.76,4.01,1.17,7.57,2.83,10.67,4.97.57.41.85.9.85,1.45,0,.21-.13.59-.38,1.14l-6.36,9.94c-.32.55-.73.83-1.23.83-.38,0-.73-.14-1.04-.41-4.11-2.62-9.01-3.94-14.7-3.94-3.67,0-6.54,1.05-8.63,3.16-2.09,2.11-3.13,5.13-3.13,9.06v20.61c0,4.07,1.06,7.14,3.18,9.22,2.12,2.07,5.04,3.11,8.77,3.11,2.02,0,3.95-.26,5.78-.78s3.41-1.22,4.74-2.12v-11.91h-10.15c-1.08,0-1.61-.62-1.61-1.86v-10.15c0-1.17.54-1.76,1.61-1.76h23.05c1.08,0,1.61.59,1.61,1.76v29.82c0,.9-.22,1.59-.66,2.07-2.97,3.31-6.58,5.94-10.81,7.87Z"/>
        <path class="cls-1" d="M421.69,108.67c0-1.29.57-1.93,1.71-1.93h11.85c1.14,0,1.71.64,1.71,1.93v72.87c0,1.29-.57,1.93-1.71,1.93h-11.85c-1.14,0-1.71-.64-1.71-1.93v-28.76h-21.34v28.76c0,1.29-.57,1.93-1.71,1.93h-11.86c-1.14,0-1.71-.64-1.71-1.93v-72.87c0-1.29.57-1.93,1.71-1.93h11.86c1.14,0,1.71.64,1.71,1.93v28.12h21.34v-28.12Z"/>
        <path class="cls-1" d="M496.71,106.74c1.08,0,1.61.64,1.61,1.93v12.23c0,1.22-.54,1.82-1.61,1.82h-17.36v58.81c0,1.29-.54,1.93-1.61,1.93h-11.95c-1.08,0-1.61-.64-1.61-1.93v-58.81h-17.36c-1.14,0-1.71-.61-1.71-1.82v-12.23c0-1.29.57-1.93,1.71-1.93h49.89Z"/>
      </g>
      <g id="disco-ball">
        <g id="ball">
          <path class="cls-1" d="M552.92,2.02v38.23l-29.58-.2c.07-.22.14-.47.2-.74l.03-.12c.09-.4.2-.84.3-1.25.17-.27.35-.65.52-1.21.07-.23.17-.53.27-.82l.16-.47.14-.43c.1-.3.19-.61.29-.87.09-.24.16-.49.24-.73.05-.16.1-.32.15-.47.11-.2.3-.56.49-1.02.12-.31.21-.61.29-.89.04-.13.07-.26.11-.37l.03-.05c.1-.2.28-.53.41-.85,4.71-10.65,12.63-23.2,20.71-26.51.12-.05.43-.16,1.17-.39.2-.06.56-.19.87-.3.14-.05.27-.09.35-.12.5-.09,1.84-.33,2.26-.39.03,0,.07,0,.1,0,.16,0,.33,0,.49-.02M553.45,0c-.33,0-.67.04-1.01.04-.06,0-.12,0-.18,0,0,0,0,0,0,0-.17,0-2.25.37-2.66.45-.07.01-.97.34-1.33.45-.36.11-1,.32-1.33.45-9.48,3.89-17.73,18.4-21.78,27.55-.17.41-.41.82-.44.9-.14.35-.25.83-.44,1.36-.19.47-.43.86-.44.9-.15.41-.28.89-.44,1.36-.15.41-.3.93-.44,1.36-.14.42-.33.97-.44,1.36-.24.77-.43.85-.44.9-.15.55-.31,1.25-.44,1.81-.15.75-.44,1.28-.44,1.36-.01.58.29,1.7-.44,1.81l34.23.23V.71c-.41-.6-.92-.71-1.47-.71h0Z"/>
          <path class="cls-1" d="M524.41,7.97c-3.38,4.65-5.6,9.92-7.77,15.06l-.44,1.04c-.04.09-.09.18-.14.28-.1.2-.21.41-.33.67-.21.5-.31.87-.39,1.15-.02.06-.03.11-.05.16-.1.19-.29.54-.45.93-.23.53-.33.93-.4,1.2-.02.07-.03.13-.05.17-.21.5-.31.88-.39,1.15-.02.06-.03.11-.04.15-.11.19-.3.55-.49,1.03-.11.29-.19.57-.27.83-.06.18-.11.35-.17.53-.11.29-.19.57-.28.83-.06.18-.11.36-.17.54-.09.25-.17.5-.24.74-.06.2-.12.4-.2.61-.24.68-.34,1.21-.4,1.56-.02.1-.03.19-.04.24-.09.25-.17.51-.25.76-.06.2-.12.39-.19.57-.13.34-.22.63-.31.92-.03.1-.06.2-.09.3l-.03.04c-.12.19-.23.39-.33.59l-26.89-.19c9.48-12.99,22.21-23.43,36.98-30.3.35-.15.67-.33.87-.44l.06-.03c.38-.16.7-.34.89-.45.15-.05.3-.1.46-.15.24-.08.48-.15.72-.24.2-.07.4-.14.6-.2.07-.02.13-.04.2-.07M529.37,4.09c-.08,0-.16,0-.23.01-.07,0-.71.3-1.33.45-.14.04-.77.31-1.33.45-.17.04-.86.31-1.33.45-.05.01-.25.22-.89.45-.46.16-.91.3-1.33.45-.45.17-.94.29-1.33.45-.05.02-.45.27-.89.45-.09.04-.49.28-.89.45-16.09,7.48-30.05,19.25-40.01,34.1l32.45.23c-.19-.93.05-1.14.44-1.81.16-.47.25-.85.44-1.36.16-.41.28-.89.44-1.36.15-.41.13-.93.44-1.81.16-.42.28-.89.44-1.36.16-.45.27-.87.44-1.36.16-.44.26-.87.44-1.36.19-.49.41-.82.44-.9.14-.34.17-.7.44-1.36.13-.32.16-.68.44-1.36.19-.46.41-.82.44-.9.13-.33.17-.7.44-1.36.15-.33.32-.63.44-.9,3.03-7.16,5.89-14.34,11.56-19.88.14-.36.56-.78.44-.9-.04,0-.08,0-.13,0-.17,0-.35-.01-.53-.01h0Z"/>
          <path class="cls-1" d="M476.21,53.06c.68,0,1.35.01,2.03.02.7.01,1.4.02,2.1.02.56,0,1.12,0,1.68-.03,5.02.18,9.23.26,13.26.26s7.85-.08,11.63-.26c.21,0,.43.01.64.01h0c0,.09,0,.18.02.28,0,.08.01.15.02.22-.02.13-.07.31-.11.52-.11.5-.25,1.12-.32,1.68-.04.35-.12.74-.19,1.16-.09.5-.19,1.02-.25,1.53-.05.37-.12.76-.19,1.15-.09.51-.19,1.03-.25,1.58l-.1.81c-.12.94-.24,1.87-.35,2.84-.05.51-.12,1.02-.19,1.54-.09.68-.19,1.38-.25,2.09-.07.71-.15,1.44-.24,2.17-.07.63-.14,1.26-.21,1.91-.18,2.07-.3,4-.43,6.06l-.02.27c-.31,3.64-.57,6.99-.52,10.39l-36.86.41c-.07-.73-.07-1.88,0-3.45.01-.33.02-.61.03-.8.06-1.2.26-2.84.41-4.16l.02-.19v-.04s0-.04,0-.04c.03-.42.13-1.03.22-1.61.08-.5.16-.99.21-1.43.14-.9.29-1.86.43-2.62.09-.52.21-1.11.33-1.67l.11-.54c.06-.28.11-.58.17-.87.09-.46.18-.92.27-1.35.07-.32.17-.69.26-1.06.06-.24.12-.48.18-.7l.08-.35c.11-.47.24-.98.35-1.41.02-.08.07-.21.12-.36.1-.3.23-.66.31-.96.05-.18.13-.41.21-.64.08-.23.16-.47.22-.68.07-.24.16-.51.25-.77.06-.19.13-.38.18-.56l.11-.33c.1-.33.22-.68.32-.97.08-.23.15-.46.23-.7.07-.21.13-.42.2-.61.15-.39.26-.74.33-1,.03-.1.06-.2.08-.28l.05-.1c.11-.21.27-.52.39-.81.18-.41.36-.9.52-1.33.11-.29.25-.68.32-.83.49-.92,1.08-1.88,1.65-2.81.13-.2.25-.41.37-.61.05,0,.11,0,.16,0M476.21,51.06c-.43,0-.87,0-1.3.02-.87,1.48-1.87,3-2.67,4.52-.2.42-.57,1.53-.89,2.26-.17.39-.4.8-.44.9-.12.3-.22.77-.44,1.36-.15.4-.29.9-.44,1.36-.15.41-.31.93-.44,1.36-.14.44-.32.94-.44,1.36-.13.44-.33.97-.44,1.36-.14.49-.39,1.13-.44,1.36-.15.57-.31,1.23-.44,1.81-.14.57-.33,1.27-.44,1.81-.16.72-.3,1.53-.44,2.26-.14.72-.32,1.56-.44,2.26-.15.85-.32,1.86-.44,2.71-.11.98-.38,2.27-.44,3.16-.16,1.36-.38,3.19-.44,4.52,0,1.14-.41,5.84.67,6.32l40.23-.45c-.22-4.11.09-8.11.44-12.2.13-2.15.26-4.18.44-6.32.14-1.34.32-2.75.44-4.07.11-1.23.32-2.44.44-3.61.14-1.23.29-2.4.44-3.61.12-.92.33-1.85.44-2.71.11-.92.34-1.87.44-2.71.1-.82.4-1.88.44-2.26.07-.59-.33-1.68.44-1.81v-.45l-.44-.45c-.16,0-.32,0-.47,0-.52,0-1.04.02-1.55.02-.21,0-.43,0-.64-.02-3.95.18-7.8.26-11.63.26-4.38,0-8.75-.1-13.26-.26-.56.02-1.12.03-1.68.03-1.37,0-2.76-.04-4.13-.04h0Z"/>
          <path class="cls-1" d="M581.89,52.74c3.35,0,5.79.11,7.44.32.1.01.19.02.29.02.09.09.22.26.3.45.02.1.03.22.05.36.07.47.16,1.12.37,1.84.07.23.14.66.21,1.05.06.37.13.74.2,1.07.09.39.15.86.23,1.35.06.44.13.87.2,1.26.14.82.32,1.85.44,2.7.12.71.23,1.52.33,2.32l.1.77.05.38c.13,1.03.28,2.2.39,3.18.04.42.09.85.14,1.29.12,1.08.24,2.19.3,3.18l.04.55c.15,1.83.31,3.91.4,5.67.1,4.87.08,7.73.02,9.24h-35.39l-.61-36.38c.14-.04.28-.08.42-.13.23-.07.45-.14.68-.2.01,0,.03,0,.05,0h0c.17,0,.34.02.53.03.29.02.58.04.85.04.14,0,.28,0,.41-.02.06,0,.12,0,.18,0h.3s.22,0,.22,0h.09s.12,0,.12,0h.14s.11,0,.11,0h.06c.46,0,.94.01,1.45.01,2.5,0,5.5-.08,8.68-.16,3.44-.09,7-.19,10.2-.19M581.89,50.74c-6.18,0-13.71.35-18.88.35-.5,0-.97,0-1.42-.01-.03,0-.06,0-.09,0-.09,0-.17,0-.26,0-.03,0-.06,0-.09,0-.04,0-.08,0-.12,0-.16,0-.33,0-.51,0-.08,0-.17,0-.26,0-.11.01-.22.02-.34.02-.44,0-.95-.07-1.37-.07-.19,0-.36.01-.51.05-.87.23-1.74.57-2.67.68l.67,39.98h39.12c.45-.33.25-9.85.22-11.29-.09-2.01-.28-4.29-.44-6.32-.1-1.41-.3-3.08-.44-4.52-.12-1.14-.29-2.45-.44-3.61-.14-1-.28-2.17-.44-3.16-.12-.83-.3-1.86-.44-2.71-.17-.89-.26-1.89-.44-2.71-.16-.71-.26-1.66-.44-2.26-.3-.98-.3-1.87-.44-2.26-.28-.77-.97-1.63-1.78-1.81-.03,0-.07-.01-.11-.01-.09,0-.18.01-.26.01-.03,0-.05,0-.07,0-1.94-.25-4.66-.34-7.71-.34h0Z"/>
          <path class="cls-1" d="M633.54,52.98c.19,0,.3,0,.36.01.41.26,1.07,1.51,1.39,2.12.18.33.35.65.52.94.11.26.23.53.35.81.33.75.67,1.53.9,2.14.06.15.1.3.15.46.08.26.17.55.3.91.06.17.12.34.17.53.08.26.16.53.27.81.07.2.14.42.21.65.07.22.14.45.21.66.14.4.3.91.43,1.3.06.2.14.42.21.64.08.24.16.48.22.68.08.26.14.56.21.85.07.3.14.61.21.87.12.47.29.94.4,1.26.02.05.04.1.05.14.06.24.12.49.19.75.09.33.17.66.23.95.07.31.16.65.24.98.08.29.16.59.19.78.06.29.12.61.19.93.09.45.18.9.25,1.29l.06.35c.13.76.27,1.59.37,2.28.05.39.12.83.19,1.28.1.64.21,1.31.24,1.78v.04s0,.04,0,.04c.16,1.3.37,3.11.43,4.33.06,1.96.06,3.89.03,5.15l-36.86-.41c.05-3.65-.21-7.21-.51-10.79-.11-1.85-.26-3.73-.45-5.95l-.14-1.47-.3-3.03c-.07-.76-.17-1.49-.26-2.2-.07-.49-.13-.97-.19-1.47-.07-.64-.17-1.26-.26-1.86-.07-.45-.13-.89-.19-1.3-.06-.55-.16-1.07-.26-1.58-.08-.41-.15-.8-.19-1.17-.07-.5-.16-1.01-.25-1.51-.07-.4-.14-.8-.2-1.18-.07-.63-.26-1.45-.38-1.99-.02-.08-.04-.16-.05-.22,0-.17,0-.34,0-.51,1.78.07,3.51.1,5.26.1s3.78-.04,6.14-.11h.15s.23,0,.23,0h.29s.2,0,.2,0c.52-.01,1.04-.02,1.57-.02.67,0,1.35,0,2.04.01.7,0,1.4.01,2.1.01.45,0,.91,0,1.36-.01.34,0,.67,0,1.01,0,.71,0,1.43-.01,2.14-.03.69-.01,1.38-.03,2.07-.03s1.26.01,1.8.04h.05s.05,0,.05,0h.54s.82,0,.82,0c.14,0,.25,0,.32,0,.16.01.33.02.52.02.45,0,.94-.03,1.41-.06.43-.03.88-.05,1.23-.05M633.54,50.98c-.81,0-1.86.11-2.64.11-.15,0-.29,0-.42-.01-.03,0-.2,0-.42,0-.44,0-1.09,0-1.36,0-.63-.03-1.26-.04-1.9-.04-1.4,0-2.81.05-4.21.05-.34,0-.67,0-1-.01-.45,0-.91.01-1.36.01-1.38,0-2.78-.03-4.14-.03-.54,0-1.08,0-1.61.02-.05,0-.1,0-.16,0-.17,0-.35,0-.52,0-.07,0-.14,0-.21,0-2.14.07-4.1.11-6.07.11-1.77,0-3.55-.03-5.48-.11-.14.02-.28.03-.42.03-.34,0-.7-.04-1.05-.04-.1,0-.2,0-.3.01,0,.9,0,1.81,0,2.71,0,.12.36,1.48.44,2.26.12.86.32,1.8.44,2.71.1.83.34,1.79.44,2.71.13,1.03.32,2.09.44,3.16.13,1.19.34,2.37.44,3.61.15,1.49.3,3.02.44,4.52.17,1.99.32,3.87.44,5.87.36,4.23.66,8.39.44,12.65l40.67.45c.4-.29.25-6.21.22-7.23-.07-1.32-.28-3.17-.44-4.52-.07-.9-.32-2.19-.44-3.16-.12-.85-.3-1.85-.44-2.71-.12-.69-.31-1.54-.44-2.26-.1-.51-.32-1.22-.44-1.81-.11-.53-.31-1.23-.44-1.81-.03-.12-.3-.8-.44-1.36-.16-.6-.28-1.26-.44-1.81-.12-.4-.31-.92-.44-1.36-.13-.41-.3-.94-.44-1.36-.16-.45-.29-.95-.44-1.36-.18-.48-.29-.94-.44-1.36-.2-.53-.29-.93-.44-1.36-.35-.94-.92-2.2-1.33-3.16-.76-1.24-1.69-3.63-3.11-4.07-.23-.07-.56-.09-.94-.09h0Z"/>
          <path class="cls-1" d="M516.46,94.21l36.46.61v34.89l-32.92.21s-.06-.09-.09-.13c0-.05-.02-.11-.03-.17-.09-.54-.22-1.28-.37-1.82-.08-.29-.14-.66-.21-1.06-.07-.38-.13-.76-.21-1.12-.08-.37-.14-.8-.21-1.26-.06-.44-.13-.9-.22-1.37l-.14-.84c-.1-.61-.21-1.24-.3-1.84-.11-.68-.22-1.46-.32-2.22l-.11-.86-.13-1.04c-.11-.85-.22-1.74-.31-2.53-.14-1.41-.34-3.33-.44-4.92-.18-2.24-.35-4.59-.44-6.68v-.3c-.07-4.1-.05-6.33,0-7.55M514.69,92.18c-.41.29-.24,8.6-.22,9.94.09,2.15.27,4.61.44,6.78.1,1.55.28,3.4.44,4.97.12,1.14.3,2.45.44,3.61.14,1,.28,2.17.44,3.16.12.85.3,1.84.44,2.71.18.91.25,1.87.44,2.71.17.74.27,1.59.44,2.26.2.75.39,2.15.44,2.26.13.27.61.71.67,1.36l36.23-.23v-38.85l-40.23-.68h0Z"/>
          <path class="cls-1" d="M533.7,142.85c5.52,0,11.58.14,16,.25,1.23.03,2.33.06,3.22.07v38.3c-.28,0-.56-.02-.81-.02-.23,0-.43-.02-.59-.02-.43-.08-1.6-.31-1.83-.37-.26-.08-.91-.3-1.17-.4-.34-.13-.68-.24-.96-.32-.11-.04-.22-.07-.29-.09-9.5-4.48-17.59-20.36-19.87-25.19-.18-.42-.38-.94-.57-1.44-.1-.26-.19-.51-.28-.73v-.03s-.03-.03-.03-.03c-.13-.3-.28-.59-.39-.8l-.05-.1c-.02-.07-.05-.15-.07-.25-.08-.26-.18-.62-.35-1.04-.07-.17-.12-.35-.18-.55-.07-.24-.15-.49-.24-.74-.18-.52-.36-.87-.52-1.12-.05-.15-.1-.3-.15-.45-.07-.22-.14-.43-.21-.64-.05-.16-.11-.34-.18-.53-.09-.27-.19-.56-.24-.74-.09-.33-.2-.64-.3-.93-.06-.16-.11-.32-.16-.47-.07-.23-.14-.55-.22-.89-.03-.12-.06-.24-.08-.36,1.49-.17,4.49-.35,10.51-.35M533.7,140.85c-6.84,0-12.73.22-13.01,1.02-.02.07.45.03.44,1.36.16.59.28,1.28.44,1.81.13.43.31.86.44,1.36.09.34.31.95.44,1.36.14.44.3.9.44,1.36.02.05.22.23.44.9.17.47.29.96.44,1.36.23.6.32,1.06.44,1.36.05.12.27.51.44.9.27.7.6,1.6.89,2.26,4.13,8.75,11.98,22.03,20.89,26.2.2.09.81.25,1.33.45.31.12,1.02.36,1.33.45.3.09,1.89.4,2.22.45.02,0,.04,0,.06,0,.36,0,1.12.05,1.84.05.77,0,1.51-.05,1.66-.27v-42.01c-.05,0-.11,0-.17,0-2.49,0-12.51-.35-21.05-.35h0Z"/>
          <path class="cls-1" d="M626.72,143.22c-9.73,13.86-23.51,24.89-40.08,32.02-.41.15-.86.33-1.27.51,3.01-4.14,5.07-8.98,6.95-13.41.29-.68.58-1.36.87-2.03.05-.1.1-.2.15-.3.1-.19.2-.39.29-.59v-.03s.02-.03.02-.03c.19-.45.35-.88.52-1.31.11-.3.23-.59.35-.89v-.02c.11-.19.31-.53.46-.93.23-.55.34-.95.41-1.22.02-.06.03-.12.04-.15.21-.51.31-.88.39-1.16.02-.08.04-.15.06-.22.19-.47.29-.83.37-1.09.02-.06.03-.12.05-.18.12-.21.31-.57.49-1.05.11-.3.2-.58.28-.85.05-.18.11-.35.17-.53.09-.25.17-.5.24-.75.06-.2.12-.4.2-.61.24-.67.33-1.19.39-1.54.02-.1.03-.2.05-.27.08-.23.15-.46.23-.69.07-.22.13-.43.2-.62.13-.34.22-.63.31-.92.03-.1.06-.2.09-.3l.03-.04c.12-.2.24-.4.34-.62l27.38-.19M630.49,141.19l-32.89.23c.19.93-.05,1.14-.44,1.81-.16.47-.25.85-.44,1.36-.15.4-.29.9-.44,1.36-.15.43-.13.94-.44,1.81-.16.41-.28.89-.44,1.36-.16.45-.26.87-.44,1.36-.2.52-.43.86-.44.9-.14.36-.19.72-.44,1.36-.13.33-.17.7-.44,1.36-.13.32-.15.68-.44,1.36-.19.47-.41.81-.44.9-.31.75-.56,1.48-.89,2.26-.15.33-.31.62-.44.9-2.95,6.82-5.79,14.47-11.56,19.42v.45c.07,0,.14-.01.22-.01.26,0,.53.04.79.04.11,0,.22,0,.33-.03.07-.01.84-.31,1.33-.45.26-.07.79-.3,1.33-.45.25-.07.84-.31,1.33-.45.34-.1,1.46-.64,2.22-.9,17.52-7.53,32.71-19.63,43.12-35.91h0Z"/>
        </g>
        <path id="sparkle" class="cls-1" d="M533.38,50.74c.3,2.38.62,4.79,1.17,7.12.91,3.85,2.22,6.58,6.03,8.17,3,1.25,6.9,1.71,10.13,2.13.03,0,.11-.02.09.04-2.87.41-5.79.74-8.58,1.57-3.94,1.18-5.94,3.02-7.19,6.96-.89,2.79-1.22,5.79-1.63,8.69l-.06.22c-.43-2.94-.75-5.98-1.64-8.83-1.2-3.85-3.11-5.76-6.96-6.96-2.77-.86-5.74-1.2-8.61-1.61l-.22-.06c2.94-.43,5.98-.75,8.83-1.64,3.85-1.2,5.76-3.1,6.96-6.96.87-2.77,1.26-5.9,1.63-8.79,0-.05,0-.04.05-.04Z"/>
        <path id="sparkle-2" data-name="sparkle" class="cls-1" d="M573.99,139.47c.24,1.89.49,3.8.93,5.66.72,3.06,1.76,5.23,4.79,6.49,2.38.99,5.48,1.36,8.05,1.69.03,0,.09-.02.07.03-2.28.33-4.6.58-6.81,1.24-3.13.93-4.72,2.4-5.71,5.53-.7,2.22-.97,4.6-1.3,6.9l-.05.17c-.34-2.34-.6-4.75-1.3-7.01-.96-3.06-2.47-4.57-5.53-5.53-2.2-.69-4.56-.96-6.84-1.28l-.17-.05c2.34-.34,4.76-.6,7.01-1.3,3.06-.96,4.57-2.47,5.53-5.53.69-2.2,1-4.69,1.29-6.98,0-.04,0-.03.04-.03Z"/>
      </g>
      <g>
        <path class="cls-1" d="M584.5,104.54c0-.31-.25-.57-.57-.57h-8c-2.5,0-4.54.61-6.11,1.84-1.57,1.23-2.36,2.98-2.36,5.27,0,2.47.77,4.3,2.3,5.48s3.38,2.02,5.55,2.53c1.33.3,2.34.64,3.02,1.01.68.38,1.02.97,1.02,1.77,0,.73-.32,1.29-.95,1.68-.64.39-1.47.58-2.52.58h-7.85c-.29,0-.52.23-.52.52l-.03,4.21c0,.29.23.53.52.53h7.54c1.81,0,3.39-.31,4.75-.93,1.35-.62,2.4-1.51,3.12-2.66.73-1.16,1.09-2.53,1.09-4.11s-.34-2.91-1.03-3.93c-.69-1.02-1.59-1.81-2.7-2.37-1.11-.56-2.52-1.07-4.2-1.53-1.5-.39-2.54-.74-3.11-1.06-.57-.32-.86-.84-.86-1.55,0-1.37,1.03-2.02,3.09-2.02h8.25c.31,0,.57-.25.57-.57v-4.13Z"/>
        <path class="cls-1" d="M596.69,104.03c1.63,0,3.06.37,4.28,1.1,1.22.73,2.15,1.77,2.8,3.12.65,1.35.98,2.93.98,4.75s-.33,3.41-.98,4.77-1.58,2.41-2.8,3.14c-1.22.73-2.64,1.1-4.28,1.1h-3.84v6.74c0,.43-.18.64-.53.64h-3.96c-.36,0-.53-.21-.53-.64v-24.09c0-.43.18-.64.53-.64h8.33ZM596,116.73c1.19,0,2.09-.31,2.67-.92.59-.61.88-1.55.88-2.8,0-2.48-1.18-3.73-3.55-3.73h-3.14v7.45h3.14Z"/>
        <path class="cls-1" d="M605,129.4c-.21,0-.35-.06-.42-.2-.07-.13-.08-.3-.02-.51l7.29-24.16c.13-.33.32-.5.6-.5h4.78c.29,0,.49.17.6.5l7.29,24.16c.04.14.06.24.06.28,0,.12-.05.22-.14.3-.09.08-.22.12-.36.12h-4.18c-.34,0-.56-.18-.66-.53l-1.16-4.33h-7.64l-1.19,4.33c-.08.35-.29.53-.63.53h-4.21ZM614.77,110.24l-.82,3.12c-.5,2.01-1.05,4.09-1.63,6.25h5.06c-.29-.99-.91-3.31-1.86-6.95l-.63-2.41h-.13Z"/>
        <path class="cls-1" d="M635.74,129.4c-2.83,0-5.07-.79-6.71-2.38-1.65-1.58-2.47-3.84-2.47-6.75v-7.15c0-2.92.82-5.16,2.47-6.74,1.65-1.57,3.85-2.36,6.62-2.36,1.24,0,2.44.19,3.62.58,1.17.39,2.21.92,3.11,1.61.19.14.28.29.28.44,0,.05-.04.16-.13.34l-1.98,3.28c-.13.21-.27.31-.44.31-.06,0-.18-.05-.35-.14-.57-.41-1.2-.72-1.9-.92s-1.41-.31-2.12-.31c-1.3,0-2.3.37-3,1.11-.7.74-1.05,1.74-1.05,2.99v6.7c0,1.32.36,2.34,1.07,3.06s1.72,1.08,3.02,1.08c1.61,0,3.07-.48,4.37-1.44.15-.11.27-.17.38-.17.17,0,.29.1.38.31l2.01,3.28c.08.11.13.25.13.41,0,.14-.05.25-.16.34-2.05,1.66-4.43,2.5-7.14,2.5Z"/>
        <path class="cls-1" d="M660.33,124.25c.38,0,.57.2.57.6v3.9c0,.43-.19.64-.57.64h-13.83c-.38,0-.57-.21-.57-.64v-24.09c0-.43.19-.64.57-.64h13.33c.38,0,.57.21.57.64v3.9c0,.4-.19.6-.57.6h-8.84v4.86h7.8c.38,0,.57.2.57.6v3.83c0,.4-.19.6-.57.6h-7.8v5.18h9.34Z"/>
      </g>
    </g>
  </g>
</svg>