<?xml version="1.0" encoding="UTF-8"?>
<svg id="Layer_2" data-name="Layer 2" xmlns="http://www.w3.org/2000/svg" viewBox="0 0 545.34 199.77">
  <defs>
    <style>
      .cls-1 {
        fill: #f250a9;
      }

      .cls-2 {
        fill: #0540f2;
      }
    </style>
  </defs>
  <g id="Layer_1-2" data-name="Layer 1">
    <g id="logo1_color2">
      <g>
        <path class="cls-2" d="M236,116.61c.17,0,.34,0,.52.57l23.87,79.91c.06.19.09.33.11.42-.03,0-.07,0-.11,0h-13.69c-.28,0-.52,0-.71-.64l-14.1-53.63-2.06-7.98-.29-1.13h-2.74l-.29,1.12-2.67,10.32-13.49,51.33c-.14.6-.3.6-.6.6h-13.79s-.06,0-.08,0c0-.09.02-.22.08-.42l23.86-79.87c.25-.63.45-.63.53-.63h15.64M236,115.11h-15.64c-.89,0-1.54.55-1.96,1.64l-23.87,79.92c-.21.7-.19,1.27.05,1.7.24.43.7.65,1.39.65h13.79c1.1,0,1.78-.59,2.06-1.76l13.48-51.29,2.68-10.33h.41l2.06,7.98,14.1,53.64c.34,1.17,1.06,1.76,2.16,1.76h13.69c.48,0,.88-.14,1.18-.41.31-.27.46-.61.46-1,0-.16-.07-.47-.21-.94l-23.88-79.92c-.34-1.09-.99-1.64-1.95-1.64h0Z"/>
        <path class="cls-2" d="M335.19,116.61c.92,0,1.66.73,1.66,1.62v10.95c0,.89-.74,1.62-1.66,1.62h-35.72c-4.66,0-8.34,1.4-10.92,4.15-2.56,2.73-3.85,6.4-3.85,10.92v22.17c0,4.76,1.32,8.52,3.93,11.17,2.61,2.66,6.3,4.01,10.95,4.01h36.59c.38,0,.69.3.69.66v12.98c0,.36-.31.66-.69.66h-36.7c-8.82,0-15.86-2.5-20.93-7.44-5.06-4.92-7.62-12.07-7.62-21.26v-23.64c0-9.18,2.56-16.32,7.62-21.2,5.07-4.9,12.01-7.38,20.62-7.38h36.03M335.19,115.11h-36.03c-9.06,0-16.28,2.6-21.66,7.8-5.39,5.2-8.08,12.63-8.08,22.28v23.64c0,9.65,2.69,17.1,8.08,22.34,5.38,5.24,12.71,7.86,21.97,7.86h36.7c1.21,0,2.19-.97,2.19-2.16v-12.98c0-1.19-.98-2.16-2.19-2.16h-36.59c-4.25,0-7.55-1.19-9.88-3.56-2.33-2.38-3.5-5.75-3.5-10.12v-22.17c0-4.15,1.15-7.44,3.45-9.9,2.3-2.45,5.57-3.67,9.83-3.67h35.72c1.75,0,3.16-1.4,3.16-3.12v-10.95c0-1.72-1.41-3.12-3.16-3.12h0Z"/>
        <path class="cls-2" d="M523.15,116.61c.14,0,.23.02.25.02,0,0,0,0,0,0,0,0,.09.15.09.6v12.91c0,.26-.04.4-.06.46-.04.01-.13.03-.29.03h-156.67v19.08h156.67c.16,0,.25.02.29.03.02.06.06.21.06.46v12.68c0,.26-.04.4-.06.46-.04.01-.13.03-.29.03h-156.67v20.13h156.67c.17,0,.26.02.28.02,0,0,0,0,0,0,.02.05.07.2.07.47v12.91c0,.41-.08.57-.07.58-.03.01-.12.04-.28.04h-169.88c-.14,0-.23-.02-.25-.02,0,0,0,0,0,0,0,0-.09-.15-.09-.6v-79.69c0-.41.08-.57.07-.58.03-.01.12-.04.28-.04h169.88M523.15,115.11h-169.88c-1.23,0-1.85.7-1.85,2.11v79.69c0,1.41.62,2.11,1.85,2.11h169.88c1.23,0,1.85-.7,1.85-2.11v-12.91c0-1.33-.62-2-1.85-2h-155.17v-17.13h155.17c1.23,0,1.85-.66,1.85-2v-12.68c0-1.33-.62-2-1.85-2h-155.17v-16.08h155.17c1.23,0,1.85-.66,1.85-2v-12.91c0-1.41-.62-2.11-1.85-2.11h0Z"/>
        <path class="cls-2" d="M169.76,116.61c2.61,0,6.98,1.06,10.86,3.42,3.71,2.26,6.6,5.52,8.59,9.69,2.02,4.24,3.04,9.31,3.04,15.08s-1.02,10.87-3.05,15.14c-1.99,4.21-4.88,7.49-8.58,9.75-3.72,2.27-8.17,3.42-13.21,3.42h-82.76v23.8c0,.33-.05.52-.08.6-.03,0-.09.01-.17.01h-12.97c-.08,0-.14,0-.16-.01-.03-.06-.09-.24-.09-.6v-79.64c0-.37.29-.66.65-.66h97.93M84.65,158.62h80.5c4.32,0,7.63-1.18,9.84-3.52,2.18-2.31,3.29-5.78,3.29-10.3,0-9.04-4.54-13.82-13.13-13.82h-80.5v27.65M55.08,116.61c.2,0,.37.17.37.38v13.62c0,.21-.17.38-.37.38h-27.21c-7.77,0-11.71,2.75-11.71,8.17,0,2.88,1.25,5.1,3.6,6.41,2.02,1.13,5.49,2.33,10.6,3.65,5.45,1.48,10.02,3.14,13.59,4.94,3.43,1.73,6.24,4.19,8.35,7.32,2.09,3.1,3.15,7.18,3.15,12.15s-1.14,9.19-3.38,12.75c-2.24,3.55-5.49,6.32-9.67,8.22-4.25,1.94-9.31,2.92-15.05,2.92H2.47c-.06,0-.11-.02-.15-.06-.03-.03-.07-.09-.07-.17l.11-13.89c0-.13.1-.23.22-.23h25.91c3.7,0,6.76-.72,9.08-2.15,2.53-1.55,3.86-3.91,3.86-6.84,0-3.17-1.42-5.64-4.12-7.15-2.38-1.33-5.77-2.47-10.34-3.5-6.9-1.61-12.87-4.32-17.73-8.06-4.71-3.63-6.99-9.15-6.99-16.9,0-7.14,2.36-12.45,7.21-16.22,4.9-3.82,11.37-5.75,19.24-5.75h26.39M169.76,115.11h-97.93c-1.19,0-2.15.97-2.15,2.16v79.64c0,1.38.58,2.11,1.75,2.11h12.97c1.17,0,1.75-.7,1.75-2.11v-22.3h81.26c5.35,0,10.02-1.21,14-3.64,3.98-2.42,7.03-5.89,9.16-10.39,2.13-4.5,3.19-9.76,3.19-15.78s-1.06-11.27-3.19-15.73c-2.13-4.46-5.18-7.9-9.16-10.33-3.98-2.42-8.64-3.64-11.64-3.64h0ZM86.15,157.12v-24.65h79c7.75,0,11.63,4.11,11.63,12.32,0,4.15-.96,7.24-2.88,9.27-1.92,2.04-4.84,3.05-8.75,3.05h-79ZM55.08,115.11h-26.39c-8.25,0-14.97,2.02-20.16,6.07-5.19,4.04-7.79,9.85-7.79,17.41,0,8.16,2.53,14.19,7.58,18.09,5.05,3.89,11.15,6.67,18.3,8.33,4.4.98,7.72,2.1,9.95,3.34,2.23,1.25,3.35,3.19,3.35,5.84,0,2.42-1.05,4.27-3.14,5.56-2.1,1.29-4.86,1.93-8.3,1.93H2.58c-.95,0-1.71.77-1.72,1.72l-.11,13.89c0,.96.77,1.74,1.72,1.74h24.88c5.98,0,11.2-1.02,15.67-3.06,4.47-2.04,7.9-4.97,10.31-8.79,2.41-3.82,3.61-8.33,3.61-13.55s-1.13-9.62-3.4-12.98c-2.27-3.36-5.24-5.97-8.92-7.82-3.68-1.85-8.3-3.53-13.87-5.05-4.95-1.28-8.37-2.46-10.26-3.51-1.89-1.06-2.84-2.76-2.84-5.1,0-4.53,3.4-6.67,10.21-6.67h27.21c1.03,0,1.87-.84,1.87-1.88v-13.62c0-1.04-.84-1.88-1.87-1.88h0Z"/>
      </g>
      <g>
        <path class="cls-1" d="M56.97,17.35c0-1.04-.84-1.88-1.87-1.88h-26.39c-8.25,0-14.97,2.02-20.17,6.07C3.34,25.58.75,31.39.75,38.95c0,8.17,2.53,14.2,7.58,18.09,5.05,3.89,11.16,6.67,18.31,8.34,4.4.98,7.72,2.1,9.95,3.35,2.23,1.25,3.35,3.2,3.35,5.84,0,2.42-1.05,4.27-3.15,5.56-2.1,1.29-4.87,1.93-8.3,1.93H2.58c-.95,0-1.71.77-1.72,1.72l-.11,13.9c0,.96.77,1.74,1.72,1.74h24.89c5.98,0,11.21-1.02,15.68-3.06,4.47-2.04,7.91-4.97,10.32-8.79,2.41-3.82,3.61-8.34,3.61-13.56s-1.13-9.62-3.4-12.99c-2.27-3.36-5.24-5.97-8.92-7.83-3.68-1.85-8.3-3.53-13.87-5.05-4.95-1.28-8.37-2.46-10.26-3.52-1.89-1.06-2.84-2.76-2.84-5.11,0-4.54,3.4-6.67,10.21-6.67h27.22c1.03,0,1.87-.84,1.87-1.88v-13.62Z"/>
        <path class="cls-1" d="M98.91,15.55c5.39,0,10.09,1.21,14.1,3.64,4.01,2.42,7.08,5.86,9.22,10.32,2.14,4.46,3.21,9.69,3.21,15.72s-1.07,11.28-3.21,15.77-5.22,7.96-9.22,10.38c-4.01,2.42-8.71,3.64-14.1,3.64h-12.65v22.29c0,1.41-.59,2.11-1.76,2.11h-13.06c-1.18,0-1.76-.7-1.76-2.11V17.66c0-1.41.59-2.11,1.76-2.11h27.47ZM96.63,57.54c3.94,0,6.88-1.01,8.81-3.05,1.93-2.03,2.9-5.12,2.9-9.26,0-8.21-3.91-12.32-11.71-12.32h-10.36v24.63h10.36Z"/>
        <path class="cls-1" d="M193.76,67.22c0,10.13-2.66,18.02-7.98,23.68-5.32,5.67-12.75,8.5-22.29,8.5s-16.86-2.83-22.18-8.5c-5.32-5.67-7.98-13.56-7.98-23.68v-19.61c0-10.05,2.66-17.9,7.98-23.57s12.71-8.5,22.18-8.5,16.96,2.81,22.29,8.44c5.32,5.63,7.98,13.5,7.98,23.63v19.61ZM150.32,66.88c0,5.06,1.1,8.88,3.32,11.45,2.21,2.57,5.49,3.85,9.85,3.85,8.78,0,13.16-5.1,13.16-15.3v-18.92c0-10.12-4.39-15.19-13.16-15.19-4.35,0-7.64,1.29-9.85,3.85-2.21,2.57-3.32,6.35-3.32,11.33v18.92Z"/>
        <path class="cls-1" d="M255.33,15.55c1.18,0,1.76.7,1.76,2.11v13.37c0,1.33-.59,1.99-1.76,1.99h-18.97v64.27c0,1.41-.59,2.11-1.76,2.11h-13.06c-1.18,0-1.76-.7-1.76-2.11V33.02h-18.97c-1.24,0-1.87-.66-1.87-1.99v-13.37c0-1.41.62-2.11,1.87-2.11h54.52Z"/>
        <path class="cls-1" d="M267.97,99.41c-1.24,0-1.87-.7-1.87-2.11V17.66c0-1.41.62-2.11,1.87-2.11h13.06c1.18,0,1.76.7,1.76,2.11v64.27h28.3c1.17,0,1.76.66,1.76,1.99v13.37c0,1.41-.59,2.11-1.76,2.11h-43.12Z"/>
        <path class="cls-1" d="M396.19,96.24c-4.63,2.11-9.57,3.17-14.82,3.17-5.94,0-11.16-1.17-15.65-3.51-4.49-2.34-8-5.77-10.52-10.3-2.52-4.53-3.78-10-3.78-16.41v-23.65c0-9.58,2.71-16.97,8.14-22.18,5.42-5.21,12.66-7.81,21.72-7.81,4.42,0,8.83.64,13.22,1.92,4.39,1.28,8.27,3.09,11.66,5.43.62.45.93.98.93,1.58,0,.23-.14.64-.41,1.24l-6.95,10.87c-.35.6-.8.9-1.35.9-.41,0-.8-.15-1.14-.45-4.49-2.87-9.85-4.3-16.07-4.3-4.01,0-7.15,1.15-9.43,3.45-2.28,2.3-3.42,5.6-3.42,9.9v22.52c0,4.45,1.16,7.81,3.47,10.07,2.31,2.26,5.51,3.4,9.59,3.4,2.21,0,4.32-.28,6.32-.85s3.73-1.34,5.18-2.32v-13.01h-11.09c-1.18,0-1.76-.68-1.76-2.04v-11.09c0-1.28.59-1.92,1.76-1.92h25.19c1.18,0,1.76.64,1.76,1.92v32.59c0,.98-.24,1.74-.72,2.26-3.25,3.62-7.19,6.49-11.82,8.6Z"/>
        <path class="cls-1" d="M461.59,17.66c0-1.41.62-2.11,1.87-2.11h12.96c1.24,0,1.87.7,1.87,2.11v79.64c0,1.41-.62,2.11-1.87,2.11h-12.96c-1.24,0-1.87-.7-1.87-2.11v-31.43h-23.32v31.43c0,1.41-.62,2.11-1.86,2.11h-12.96c-1.24,0-1.87-.7-1.87-2.11V17.66c0-1.41.62-2.11,1.87-2.11h12.96c1.24,0,1.86.7,1.86,2.11v30.73h23.32v-30.73Z"/>
        <path class="cls-1" d="M543.58,15.55c1.18,0,1.76.7,1.76,2.11v13.37c0,1.33-.59,1.99-1.76,1.99h-18.97v64.27c0,1.41-.59,2.11-1.76,2.11h-13.06c-1.18,0-1.76-.7-1.76-2.11V33.02h-18.97c-1.24,0-1.87-.66-1.87-1.99v-13.37c0-1.41.62-2.11,1.87-2.11h54.52Z"/>
      </g>
      <g>
        <path class="cls-1" d="M321.66,17.54v-.1c0-1.18.62-1.94,1.87-1.94h12.96c1.24,0,1.86.7,1.86,2.11v79.64c0,1.41-.62,2.11-1.86,2.11h-12.96c-1.24,0-1.87-.7-1.87-2.11V17.54Z"/>
        <path id="sparkle" class="cls-2" d="M344.71,0c.15,1.19.31,2.39.59,3.56.45,1.92,1.11,3.29,3.01,4.08,1.5.63,3.45.85,5.06,1.06.02,0,.05-.01.04.02-1.44.21-2.9.37-4.29.78-1.97.59-2.97,1.51-3.59,3.48-.44,1.4-.61,2.9-.82,4.34l-.03.11c-.21-1.47-.38-2.99-.82-4.41-.6-1.93-1.55-2.88-3.48-3.48-1.38-.43-2.87-.6-4.31-.8l-.11-.03c1.47-.21,2.99-.38,4.41-.82,1.93-.6,2.88-1.55,3.48-3.48.43-1.39.63-2.95.81-4.4,0-.02,0-.02.03-.02Z"/>
        <path id="sparkle-2" data-name="sparkle" class="cls-2" d="M317.33,6.82c.3,2.38.62,4.79,1.17,7.12.91,3.85,2.22,6.58,6.03,8.17,3,1.25,6.9,1.71,10.13,2.13.03,0,.11-.02.09.04-2.87.41-5.79.74-8.58,1.57-3.94,1.18-5.94,3.02-7.19,6.96-.89,2.79-1.22,5.79-1.63,8.69l-.06.22c-.43-2.94-.75-5.98-1.64-8.83-1.2-3.85-3.11-5.76-6.96-6.96-2.77-.86-5.74-1.2-8.61-1.61l-.22-.06c2.94-.43,5.98-.75,8.83-1.64,3.85-1.2,5.76-3.1,6.96-6.96.87-2.77,1.26-5.9,1.63-8.79,0-.05,0-.04.05-.04Z"/>
      </g>
    </g>
  </g>
</svg>