<?xml version="1.0" encoding="UTF-8"?>
<svg id="Layer_2" data-name="Layer 2" xmlns="http://www.w3.org/2000/svg" viewBox="0 0 753 909">
  <defs>
    <style>
      .cls-1 {
        letter-spacing: 0em;
      }

      .cls-2 {
        letter-spacing: 0em;
      }

      .cls-3 {
        letter-spacing: -.02em;
      }

      .cls-4 {
        letter-spacing: 0em;
      }

      .cls-5 {
        font-family: Montserrat-Light, Montserrat;
        font-variation-settings: 'wght' 300;
        font-weight: 300;
      }

      .cls-5, .cls-6, .cls-7, .cls-8 {
        fill: #fff;
      }

      .cls-5, .cls-7, .cls-8 {
        font-size: 117.22px;
      }

      .cls-9 {
        letter-spacing: -.01em;
      }

      .cls-10 {
        letter-spacing: -.04em;
      }

      .cls-11 {
        letter-spacing: 0em;
      }

      .cls-12 {
        letter-spacing: 0em;
      }

      .cls-13 {
        letter-spacing: 0em;
      }

      .cls-14 {
        letter-spacing: 0em;
      }

      .cls-15 {
        letter-spacing: -.02em;
      }

      .cls-16 {
        letter-spacing: -.04em;
      }

      .cls-17 {
        letter-spacing: -.04em;
      }

      .cls-18 {
        letter-spacing: 0em;
      }

      .cls-19 {
        letter-spacing: 0em;
      }

      .cls-20 {
        fill: #231f20;
      }

      .cls-21 {
        letter-spacing: 0em;
      }

      .cls-22 {
        letter-spacing: -.01em;
      }

      .cls-23 {
        letter-spacing: 0em;
      }

      .cls-24 {
        fill: #f2e205;
      }

      .cls-24, .cls-6 {
        font-family: Montserrat-Regular, Montserrat;
        font-variation-settings: 'wght' 400;
      }

      .cls-24, .cls-25 {
        font-size: 36px;
      }

      .cls-26 {
        letter-spacing: -.01em;
      }

      .cls-27 {
        letter-spacing: -.04em;
      }

      .cls-28 {
        letter-spacing: 0em;
      }

      .cls-29 {
        letter-spacing: -.04em;
      }

      .cls-30 {
        letter-spacing: 0em;
      }

      .cls-31 {
        letter-spacing: 0em;
      }

      .cls-6 {
        font-size: 24px;
      }

      .cls-32 {
        letter-spacing: 0em;
      }

      .cls-33 {
        letter-spacing: 0em;
      }

      .cls-7, .cls-25 {
        font-family: Montserrat-Bold, Montserrat;
        font-variation-settings: 'wght' 700;
        font-weight: 700;
      }

      .cls-8 {
        font-family: UniNeue-Trial-Heavy, 'Uni Neue-Trial';
        font-weight: 800;
      }

      .cls-25 {
        fill: #f250a9;
      }

      .cls-34 {
        letter-spacing: 0em;
      }
    </style>
  </defs>
  <g id="Layer_2-2" data-name="Layer 2">
    <rect id="bg" class="cls-20" width="753" height="909"/>
    <text class="cls-25" transform="translate(71.12 77.1) scale(.9 1)"><tspan x="0" y="0">Typog</tspan><tspan class="cls-17" x="117.39" y="0">r</tspan><tspan x="131.51" y="0">afi</tspan></text>
    <text class="cls-24" transform="translate(71.12 171.65) scale(.9 1)"><tspan class="cls-11" x="0" y="0">L</tspan><tspan x="20.92" y="0">ogo</tspan></text>
    <text class="cls-24" transform="translate(71.12 375.71) scale(.9 1)"><tspan x="0" y="0">O</tspan><tspan class="cls-22" x="30.2" y="0">v</tspan><tspan class="cls-12" x="49.18" y="0">e</tspan><tspan class="cls-1" x="70.92" y="0">r</tspan><tspan x="85.28" y="0">s</tspan><tspan class="cls-11" x="102.85" y="0">kr</tspan><tspan x="138.24" y="0">ift</tspan></text>
    <text class="cls-24" transform="translate(71.12 580.06) scale(.9 1)"><tspan class="cls-9" x="0" y="0">P</tspan><tspan x="25.31" y="0">a</tspan><tspan class="cls-27" x="46.55" y="0">r</tspan><tspan x="59.51" y="0">ag</tspan><tspan class="cls-27" x="105.41" y="0">r</tspan><tspan x="118.37" y="0">af mm.</tspan></text>
    <text class="cls-8" transform="translate(66.84 282.17) scale(.9 1)"><tspan class="cls-28" x="0" y="0">U</tspan><tspan x="80.06" y="0">ni </tspan><tspan class="cls-32" x="201.49" y="0">N</tspan><tspan x="283.9" y="0">eue</tspan></text>
    <text class="cls-7" transform="translate(65.42 483.71) scale(.9 1)"><tspan x="0" y="0">Montse</tspan><tspan class="cls-34" x="456.9" y="0">r</tspan><tspan class="cls-10" x="506.96" y="0">r</tspan><tspan x="552.91" y="0">at</tspan></text>
    <text class="cls-5" transform="translate(63.63 691.13) scale(.9 1)"><tspan x="0" y="0">Montse</tspan><tspan class="cls-33" x="436.27" y="0">r</tspan><tspan class="cls-16" x="481.4" y="0">r</tspan><tspan class="cls-4" x="523.13" y="0">at</tspan></text>
    <text class="cls-6" transform="translate(74.81 739.2)"><tspan class="cls-18" x="0" y="0">L</tspan><tspan class="cls-2" x="13.94" y="0">o</tspan><tspan class="cls-26" x="28.99" y="0">r</tspan><tspan x="38.3" y="0">em ipsum dolor s</tspan><tspan class="cls-13" x="247.32" y="0">i</tspan><tspan x="253.56" y="0">t ame</tspan><tspan class="cls-14" x="323.71" y="0">t</tspan><tspan x="333.7" y="0">, </tspan><tspan class="cls-31" x="345.07" y="0">c</tspan><tspan x="358.37" y="0">onse</tspan><tspan class="cls-21" x="415.85" y="0">c</tspan><tspan class="cls-3" x="429.5" y="0">t</tspan><tspan x="438.79" y="0">etuer </tspan><tspan x="0" y="28.8">adipis</tspan><tspan class="cls-18" x="71.33" y="28.8">c</tspan><tspan class="cls-2" x="84.65" y="28.8">ing el</tspan><tspan class="cls-31" x="151.01" y="28.8">i</tspan><tspan class="cls-14" x="157.25" y="28.8">t</tspan><tspan x="167.23" y="28.8">, sed diam nonum</tspan><tspan class="cls-3" x="385.1" y="28.8">m</tspan><tspan x="410.11" y="28.8">y nibh </tspan><tspan x="0" y="57.6">euismod tin</tspan><tspan class="cls-23" x="144.29" y="57.6">c</tspan><tspan class="cls-30" x="157.61" y="57.6">idunt ut lao</tspan><tspan class="cls-26" x="296.54" y="57.6">r</tspan><tspan x="305.85" y="57.6">eet dolo</tspan><tspan class="cls-26" x="403.7" y="57.6">r</tspan><tspan x="413.01" y="57.6">e magna </tspan><tspan x="0" y="86.4">aliquam e</tspan><tspan class="cls-29" x="119.88" y="86.4">r</tspan><tspan x="128.52" y="86.4">at </tspan><tspan class="cls-15" x="158.71" y="86.4">v</tspan><tspan x="171.36" y="86.4">olut</tspan><tspan class="cls-19" x="218.74" y="86.4">p</tspan><tspan x="234.94" y="86.4">a</tspan><tspan class="cls-14" x="249.1" y="86.4">t</tspan><tspan x="259.08" y="86.4">.</tspan></text>
  </g>
</svg>